<mxfile host="app.diagrams.net" modified="2023-08-21T01:05:57.542Z" agent="Mozilla/5.0 (Windows NT 10.0; Win64; x64) AppleWebKit/537.36 (KHTML, like Gecko) Chrome/115.0.0.0 Safari/537.36" version="21.6.8" etag="rKpinHANHMJcFwlzAr6V" type="github">
  <diagram name="페이지-1" id="vWKRQ_ER3H3CEtGGl0i5">
    <mxGraphModel>
      <root>
        <mxCell id="0" />
        <mxCell id="1" parent="0" />
      </root>
    </mxGraphModel>
  </diagram>
</mxfile>
